<?xml version="1.0" encoding="UTF-8" standalone="no"?>
<!DOCTYPE svg PUBLIC "-//W3C//DTD SVG 1.1//EN" "http://www.w3.org/Graphics/SVG/1.1/DTD/svg11.dtd">
<svg xmlns="http://www.w3.org/2000/svg" xmlns:dc="http://purl.org/dc/elements/1.1/" xmlns:xl="http://www.w3.org/1999/xlink" version="1.1" viewBox="0 0 50 39.74262" width="50" height="39.74262">
  <defs/>
  <metadata> Produced by OmniGraffle 7.18.5\n2021-05-28 09:46:59 +0000</metadata>
  <g id="Canvas_1" fill-opacity="1" stroke-opacity="1" fill="none" stroke-dasharray="none" stroke="none">
    <title>Canvas 1</title>
    <g id="Canvas_1_Layer_1">
      <title>Layer 1</title>
      <g id="Graphic_6">
        <title>&#x10039E;</title>
        <path d="M 17.146101 37.79334 L 28.06586 37.79334 L 28.06586 24.015897 C 28.06586 23.586927 27.933385 23.23997 27.668433 22.97502 C 27.40348 22.710067 27.056525 22.577593 26.627555 22.577593 L 18.60333 22.577593 C 18.161744 22.577593 17.80848 22.710067 17.543528 22.97502 C 17.278576 23.23997 17.146101 23.586927 17.146101 24.015897 Z M 9.727479 39.74262 L 35.33308 39.74262 C 36.683075 39.74262 37.73025 39.37674 38.47464 38.644966 C 39.21903 37.913193 39.59122 36.884942 39.59122 35.56018 L 39.59122 14.647994 L 36.544285 12.566238 L 36.544285 34.784254 C 36.544285 35.402476 36.386577 35.875598 36.07116 36.203634 C 35.75574 36.53167 35.295234 36.695685 34.68963 36.695685 L 10.370931 36.695685 C 9.765326 36.695685 9.301667 36.53167 8.979939 36.203634 C 8.658212 35.875598 8.49735 35.402476 8.49735 34.784254 L 8.49735 12.585163 L 5.4504164 14.647994 L 5.4504164 35.56018 C 5.4504164 36.884942 5.8257596 37.913193 6.576457 38.644966 C 7.327155 39.37674 8.377485 39.74262 9.727479 39.74262 Z M 0 18.67903 C 0 19.07015 .14509065 19.42026 .4352763 19.729372 C .725462 20.038482 1.1228842 20.193036 1.6275549 20.193036 C 1.892507 20.193036 2.1353761 20.129953 2.3561696 20.003785 C 2.576963 19.877617 2.7882907 19.738835 2.990159 19.587434 L 21.93414 3.690386 C 22.148626 3.5011346 22.37257 3.4065102 22.60598 3.4065102 C 22.83939 3.4065102 23.063335 3.5011346 23.27782 3.690386 L 42.2218 19.587434 C 42.411053 19.738835 42.616073 19.877617 42.836866 20.003785 C 43.05766 20.129953 43.30053 20.193036 43.56548 20.193036 C 44.00707 20.193036 44.385565 20.063716 44.700984 19.805072 C 45.016403 19.546428 45.17411 19.19001 45.17411 18.735806 C 45.17411 18.205902 44.978554 17.776938 44.587434 17.448902 L 24.88645 .8894777 C 24.17991 .2964896 23.419762 0 22.60598 0 C 21.7922 0 21.03205 .2964896 20.32551 .8894777 L .6056018 17.448902 C .20186525 17.776938 0 18.186977 0 18.67903 Z M 34.84103 10.14383 L 39.59122 14.174868 L 39.59122 5.412566 C 39.59122 4.996213 39.468207 4.665028 39.22218 4.419001 C 38.976153 4.172974 38.64497 4.049962 38.228615 4.049962 L 36.203634 4.049962 C 35.799897 4.049962 35.471866 4.172974 35.21953 4.419001 C 34.967195 4.665028 34.84103 4.996213 34.84103 5.412566 Z" fill="black"/>
      </g>
    </g>
  </g>
</svg>
