<?xml version="1.0" encoding="UTF-8" standalone="no"?>
<!DOCTYPE svg PUBLIC "-//W3C//DTD SVG 1.1//EN" "http://www.w3.org/Graphics/SVG/1.1/DTD/svg11.dtd">
<svg xmlns:dc="http://purl.org/dc/elements/1.1/" xmlns:xl="http://www.w3.org/1999/xlink" xmlns="http://www.w3.org/2000/svg" version="1.1" viewBox="0 0 50 50" width="50" height="50">
  <defs/>
  <g id="Canvas_1" stroke="none" stroke-opacity="1" stroke-dasharray="none" fill="none" fill-opacity="1">
    <title>Canvas 1</title>
    <g id="Canvas_1_Layer_1">
      <title>Layer 1</title>
      <g id="Graphic_9">
        <title>&#x100249;</title>
        <path d="M 8.374396 47.20456 L 41.32543 47.20456 C 43.850243 47.20456 45.739803 46.581407 46.99417 45.335083 C 48.248533 44.08876 48.875706 42.2193 48.875706 39.726653 L 48.875706 10.273347 C 48.875706 7.780699 48.248533 5.911241 46.99417 4.664917 C 45.739803 3.418593 43.850243 2.7954404 41.32543 2.7954404 L 8.374396 2.7954404 C 5.849585 2.7954404 3.9560047 3.418593 2.693599 4.664917 C 1.4311934 5.911241 .8 7.780699 .8 10.273347 L .8 39.726653 C .8 42.2193 1.4311934 44.08876 2.693599 45.335083 C 3.9560047 46.581407 5.849585 47.20456 8.374396 47.20456 Z M 8.012562 43.32087 C 6.951176 43.32087 6.131027 43.03543 5.5520894 42.46453 C 4.973152 41.893635 4.683687 41.053384 4.683687 39.943753 L 4.683687 17.196442 C 4.683687 16.086812 4.973152 15.24656 5.5520894 14.675664 C 6.131027 14.104767 6.951176 13.819323 8.012562 13.819323 L 41.63902 13.819323 C 42.71649 13.819323 43.54468 14.104767 44.123617 14.675664 C 44.702554 15.24656 44.99202 16.086812 44.99202 17.196442 L 44.99202 39.943753 C 44.99202 41.053384 44.702554 41.893635 44.123617 42.46453 C 43.54468 43.03543 42.71649 43.32087 41.63902 43.32087 Z M 20.14607 22.503344 L 21.569284 22.503344 C 21.987406 22.503344 22.28089 22.422937 22.449747 22.26212 C 22.618604 22.101305 22.70303 21.81184 22.70303 21.39372 L 22.70303 19.970504 C 22.70303 19.552383 22.618604 19.266939 22.449747 19.114163 C 22.28089 18.961388 21.987406 18.885002 21.569284 18.885002 L 20.14607 18.885002 C 19.727948 18.885002 19.434463 18.961388 19.265606 19.114163 C 19.09675 19.266939 19.012322 19.552383 19.012322 19.970504 L 19.012322 21.39372 C 19.012322 21.81184 19.09675 22.101305 19.265606 22.26212 C 19.434463 22.422937 19.727948 22.503344 20.14607 22.503344 Z M 28.154667 22.503344 L 29.57788 22.503344 C 30.012084 22.503344 30.30959 22.422937 30.470406 22.26212 C 30.63122 22.101305 30.71163 21.81184 30.71163 21.39372 L 30.71163 19.970504 C 30.71163 19.552383 30.63122 19.266939 30.470406 19.114163 C 30.30959 18.961388 30.012084 18.885002 29.57788 18.885002 L 28.154667 18.885002 C 27.736545 18.885002 27.44708 18.961388 27.286264 19.114163 C 27.12545 19.266939 27.045042 19.552383 27.045042 19.970504 L 27.045042 21.39372 C 27.045042 21.81184 27.12545 22.101305 27.286264 22.26212 C 27.44708 22.422937 27.736545 22.503344 28.154667 22.503344 Z M 36.187386 22.503344 L 37.58648 22.503344 C 38.02068 22.503344 38.318187 22.422937 38.479003 22.26212 C 38.63982 22.101305 38.720226 21.81184 38.720226 21.39372 L 38.720226 19.970504 C 38.720226 19.552383 38.63982 19.266939 38.479003 19.114163 C 38.318187 18.961388 38.02068 18.885002 37.58648 18.885002 L 36.187386 18.885002 C 35.753183 18.885002 35.455678 18.961388 35.29486 19.114163 C 35.134046 19.266939 35.05364 19.552383 35.05364 19.970504 L 35.05364 21.39372 C 35.05364 21.81184 35.134046 22.101305 35.29486 22.26212 C 35.455678 22.422937 35.753183 22.503344 36.187386 22.503344 Z M 12.137472 30.39133 L 13.560687 30.39133 C 13.978808 30.39133 14.268273 30.310923 14.429089 30.150107 C 14.589905 29.98929 14.670312 29.699826 14.670312 29.281705 L 14.670312 27.882613 C 14.670312 27.44841 14.589905 27.154925 14.429089 27.00215 C 14.268273 26.849374 13.978808 26.772988 13.560687 26.772988 L 12.137472 26.772988 C 11.703269 26.772988 11.405764 26.849374 11.244948 27.00215 C 11.084132 27.154925 11.003725 27.44841 11.003725 27.882613 L 11.003725 29.281705 C 11.003725 29.699826 11.084132 29.98929 11.244948 30.150107 C 11.405764 30.310923 11.703269 30.39133 12.137472 30.39133 Z M 20.14607 30.39133 L 21.569284 30.39133 C 21.987406 30.39133 22.28089 30.310923 22.449747 30.150107 C 22.618604 29.98929 22.70303 29.699826 22.70303 29.281705 L 22.70303 27.882613 C 22.70303 27.44841 22.618604 27.154925 22.449747 27.00215 C 22.28089 26.849374 21.987406 26.772988 21.569284 26.772988 L 20.14607 26.772988 C 19.727948 26.772988 19.434463 26.849374 19.265606 27.00215 C 19.09675 27.154925 19.012322 27.44841 19.012322 27.882613 L 19.012322 29.281705 C 19.012322 29.699826 19.09675 29.98929 19.265606 30.150107 C 19.434463 30.310923 19.727948 30.39133 20.14607 30.39133 Z M 28.154667 30.39133 L 29.57788 30.39133 C 30.012084 30.39133 30.30959 30.310923 30.470406 30.150107 C 30.63122 29.98929 30.71163 29.699826 30.71163 29.281705 L 30.71163 27.882613 C 30.71163 27.44841 30.63122 27.154925 30.470406 27.00215 C 30.30959 26.849374 30.012084 26.772988 29.57788 26.772988 L 28.154667 26.772988 C 27.736545 26.772988 27.44708 26.849374 27.286264 27.00215 C 27.12545 27.154925 27.045042 27.44841 27.045042 27.882613 L 27.045042 29.281705 C 27.045042 29.699826 27.12545 29.98929 27.286264 30.150107 C 27.44708 30.310923 27.736545 30.39133 28.154667 30.39133 Z M 36.187386 30.39133 L 37.58648 30.39133 C 38.02068 30.39133 38.318187 30.310923 38.479003 30.150107 C 38.63982 29.98929 38.720226 29.699826 38.720226 29.281705 L 38.720226 27.882613 C 38.720226 27.44841 38.63982 27.154925 38.479003 27.00215 C 38.318187 26.849374 38.02068 26.772988 37.58648 26.772988 L 36.187386 26.772988 C 35.753183 26.772988 35.455678 26.849374 35.29486 27.00215 C 35.134046 27.154925 35.05364 27.44841 35.05364 27.882613 L 35.05364 29.281705 C 35.05364 29.699826 35.134046 29.98929 35.29486 30.150107 C 35.455678 30.310923 35.753183 30.39133 36.187386 30.39133 Z M 12.137472 38.279316 L 13.560687 38.279316 C 13.978808 38.279316 14.268273 38.20293 14.429089 38.050154 C 14.589905 37.89738 14.670312 37.603894 14.670312 37.16969 L 14.670312 35.7706 C 14.670312 35.336395 14.589905 35.04291 14.429089 34.890135 C 14.268273 34.73736 13.978808 34.660974 13.560687 34.660974 L 12.137472 34.660974 C 11.703269 34.660974 11.405764 34.73736 11.244948 34.890135 C 11.084132 35.04291 11.003725 35.336395 11.003725 35.7706 L 11.003725 37.16969 C 11.003725 37.603894 11.084132 37.89738 11.244948 38.050154 C 11.405764 38.20293 11.703269 38.279316 12.137472 38.279316 Z M 20.14607 38.279316 L 21.569284 38.279316 C 21.987406 38.279316 22.28089 38.20293 22.449747 38.050154 C 22.618604 37.89738 22.70303 37.603894 22.70303 37.16969 L 22.70303 35.7706 C 22.70303 35.336395 22.618604 35.04291 22.449747 34.890135 C 22.28089 34.73736 21.987406 34.660974 21.569284 34.660974 L 20.14607 34.660974 C 19.727948 34.660974 19.434463 34.73736 19.265606 34.890135 C 19.09675 35.04291 19.012322 35.336395 19.012322 35.7706 L 19.012322 37.16969 C 19.012322 37.603894 19.09675 37.89738 19.265606 38.050154 C 19.434463 38.20293 19.727948 38.279316 20.14607 38.279316 Z M 28.154667 38.279316 L 29.57788 38.279316 C 30.012084 38.279316 30.30959 38.20293 30.470406 38.050154 C 30.63122 37.89738 30.71163 37.603894 30.71163 37.16969 L 30.71163 35.7706 C 30.71163 35.336395 30.63122 35.04291 30.470406 34.890135 C 30.30959 34.73736 30.012084 34.660974 29.57788 34.660974 L 28.154667 34.660974 C 27.736545 34.660974 27.44708 34.73736 27.286264 34.890135 C 27.12545 35.04291 27.045042 35.336395 27.045042 35.7706 L 27.045042 37.16969 C 27.045042 37.603894 27.12545 37.89738 27.286264 38.050154 C 27.44708 38.20293 27.736545 38.279316 28.154667 38.279316 Z" fill="black"/>
      </g>
    </g>
  </g>
</svg>
