<?xml version="1.0" encoding="UTF-8" standalone="no"?>
<!DOCTYPE svg PUBLIC "-//W3C//DTD SVG 1.1//EN" "http://www.w3.org/Graphics/SVG/1.1/DTD/svg11.dtd">
<svg xmlns="http://www.w3.org/2000/svg" xmlns:xl="http://www.w3.org/1999/xlink" xmlns:dc="http://purl.org/dc/elements/1.1/" version="1.1" viewBox="0 0 50 50" width="50" height="50">
  <defs/>
  <metadata> Produced by OmniGraffle 7.19.4\n2022-03-01 23:07:06 +0000</metadata>
  <g id="Canvas_1" stroke-opacity="1" fill="none" fill-opacity="1" stroke="none" stroke-dasharray="none">
    <title>Canvas 1</title>
    <g id="Canvas_1_Layer_1">
      <title>Layer 1</title>
      <g id="Graphic_7">
        <title>&#x10018A;</title>
        <path d="M 37.255184 25 C 37.255184 24.635175 37.18318 24.294356 37.03917 23.977535 C 36.89516 23.660713 36.68875 23.367897 36.41993 23.099078 L 13.608871 .7488479 C 13.090435 .24961348 12.456801 7105427e-21 11.70795 7105427e-21 C 11.227916 7105427e-21 10.786292 .11520622 10.383065 .3456221 C 9.979837 .576038 9.66302 .8880549 9.432604 1.281682 C 9.202188 1.6753092 9.086982 2.1217333 9.086982 2.6209677 C 9.086982 3.3314168 9.336595 3.9554505 9.83583 4.4930876 L 30.80357 25 L 9.83583 45.50691 C 9.336595 46.04455 9.086982 46.668583 9.086982 47.37903 C 9.086982 47.878267 9.202188 48.32469 9.432604 48.71832 C 9.66302 49.111945 9.979837 49.42396 10.383065 49.65438 C 10.786292 49.884794 11.227916 50 11.70795 50 C 12.456801 50 13.090435 49.740786 13.608871 49.22235 L 36.41993 26.900922 C 36.68875 26.632103 36.89516 26.339287 37.03917 26.022465 C 37.18318 25.705644 37.255184 25.364825 37.255184 25 Z" fill="black"/>
      </g>
    </g>
  </g>
</svg>
