<?xml version="1.0" encoding="UTF-8" standalone="no"?>
<!DOCTYPE svg PUBLIC "-//W3C//DTD SVG 1.1//EN" "http://www.w3.org/Graphics/SVG/1.1/DTD/svg11.dtd">
<svg xmlns:dc="http://purl.org/dc/elements/1.1/" xmlns:xl="http://www.w3.org/1999/xlink" xmlns="http://www.w3.org/2000/svg" version="1.1" viewBox="0 0 50 50" width="50" height="50">
  <defs/>
  <g id="Canvas_1" stroke="none" stroke-opacity="1" stroke-dasharray="none" fill="none" fill-opacity="1">
    <title>Canvas 1</title>
    <g id="Canvas_1_Layer_1">
      <title>Layer 1</title>
      <g id="Graphic_7">
        <title>&#x100174;</title>
        <path d="M 25 50 C 28.41505 50 31.629887 49.34641 34.644608 48.039216 C 37.65933 46.73202 40.318616 44.92648 42.62255 42.62255 C 44.92648 40.318616 46.73202 37.65933 48.039216 34.644608 C 49.34641 31.629887 50 28.41505 50 25 C 50 21.58495 49.34641 18.370113 48.039216 15.355392 C 46.73202 12.340671 44.92648 9.681384 42.62255 7.377451 C 40.318616 5.073518 37.655244 3.2679804 34.632353 1.9607843 C 31.609462 .6535882 28.39054 7105427e-21 24.97549 7105427e-21 C 21.56044 7105427e-21 18.345603 .6535882 15.330882 1.9607843 C 12.316161 3.2679804 9.660959 5.073518 7.365196 7.377451 C 5.069433 9.681384 3.2679804 12.340671 1.9607843 15.355392 C .6535882 18.370113 0 21.58495 0 25 C 0 28.41505 .6535882 31.629887 1.9607843 34.644608 C 3.2679804 37.65933 5.073518 40.318616 7.377451 42.62255 C 9.681384 44.92648 12.340671 46.73202 15.355392 48.039216 C 18.370113 49.34641 21.58495 50 25 50 Z M 25 45.833333 C 22.107829 45.833333 19.403607 45.294123 16.887255 44.215686 C 14.370902 43.13725 12.160957 41.64625 10.257353 39.742647 C 8.353749 37.839043 6.8668354 35.629098 5.7965686 33.112745 C 4.726302 30.596393 4.1911765 27.89217 4.1911765 25 C 4.1911765 22.107829 4.726302 19.403607 5.7965686 16.887255 C 6.8668354 14.370902 8.349664 12.156872 10.245098 10.245098 C 12.140532 8.333324 14.346393 6.842326 16.862745 5.772059 C 19.379098 4.701792 22.08332 4.1666667 24.97549 4.1666667 C 27.86766 4.1666667 30.571883 4.701792 33.088235 5.772059 C 35.604588 6.842326 37.81862 8.333324 39.73039 10.245098 C 41.642166 12.156872 43.13725 14.370902 44.215686 16.887255 C 45.294123 19.403607 45.833333 22.107829 45.833333 25 C 45.833333 27.89217 45.29821 30.596393 44.22794 33.112745 C 43.157674 35.629098 41.67076 37.839043 39.767157 39.742647 C 37.863553 41.64625 35.649522 43.13725 33.125 44.215686 C 30.600478 45.294123 27.89217 45.833333 25 45.833333 Z M 20.710784 38.455882 L 30.686275 38.455882 C 31.192813 38.455882 31.617645 38.292485 31.960784 37.965686 C 32.303923 37.638887 32.47549 37.230395 32.47549 36.740196 C 32.47549 36.249998 32.303923 35.841505 31.960784 35.514706 C 31.617645 35.187907 31.192813 35.02451 30.686275 35.02451 L 27.64706 35.02451 L 27.64706 22.54902 C 27.64706 21.879082 27.483662 21.343956 27.156863 20.943627 C 26.830064 20.543299 26.356212 20.343137 25.735294 20.343137 L 21.12745 20.343137 C 20.620912 20.343137 20.19608 20.506534 19.85294 20.833333 C 19.509802 21.160132 19.338235 21.568625 19.338235 22.058824 C 19.338235 22.549022 19.509802 22.957515 19.85294 23.284314 C 20.19608 23.611113 20.620912 23.77451 21.12745 23.77451 L 23.75 23.77451 L 23.75 35.02451 L 20.710784 35.02451 C 20.204246 35.02451 19.779413 35.187907 19.436275 35.514706 C 19.093136 35.841505 18.921569 36.249998 18.921569 36.740196 C 18.921569 37.230395 19.093136 37.638887 19.436275 37.965686 C 19.779413 38.292485 20.204246 38.455882 20.710784 38.455882 Z M 24.779412 16.25 C 25.67811 16.25 26.43382 15.939546 27.04657 15.318627 C 27.659317 14.69771 27.965686 13.946083 27.965686 13.063725 C 27.965686 12.165028 27.659317 11.405232 27.04657 10.784314 C 26.43382 10.163396 25.67811 9.852941 24.779412 9.852941 C 23.897054 9.852941 23.145428 10.163396 22.52451 10.784314 C 21.903592 11.405232 21.593137 12.165028 21.593137 13.063725 C 21.593137 13.946083 21.903592 14.69771 22.52451 15.318627 C 23.145428 15.939546 23.897054 16.25 24.779412 16.25 Z" fill="black"/>
      </g>
    </g>
  </g>
</svg>
