<?xml version="1.0" encoding="UTF-8" standalone="no"?>
<!DOCTYPE svg PUBLIC "-//W3C//DTD SVG 1.1//EN" "http://www.w3.org/Graphics/SVG/1.1/DTD/svg11.dtd">
<svg xmlns="http://www.w3.org/2000/svg" xmlns:dc="http://purl.org/dc/elements/1.1/" xmlns:xl="http://www.w3.org/1999/xlink" version="1.1" viewBox="0 0 50 50" width="50" height="50">
  <defs/>
  <metadata> Produced by OmniGraffle 7.18.5\n2021-05-28 09:57:35 +0000</metadata>
  <g id="Canvas_1" fill-opacity="1" stroke-opacity="1" fill="none" stroke-dasharray="none" stroke="none">
    <title>Canvas 1</title>
    <g id="Canvas_1_Layer_1">
      <title>Layer 1</title>
      <g id="Graphic_13">
        <title>&#x100063;</title>
        <path d="M 24.983326 47.983326 C 28.122894 47.983326 31.0784 47.38246 33.849932 46.18071 C 36.621465 44.978963 39.066235 43.319073 41.184317 41.20099 C 43.3024 39.08291 44.96229 36.63814 46.16404 33.866607 C 47.365786 31.095074 47.96665 28.139568 47.96665 25 C 47.96665 21.860432 47.365786 18.904926 46.16404 16.133393 C 44.96229 13.361861 43.3024 10.91709 41.184317 8.799009 C 39.066235 6.680927 36.61771 5.0210365 33.838666 3.819288 C 31.059623 2.6175394 28.10036 2.0166742 24.960793 2.0166742 C 21.821225 2.0166742 18.86572 2.6175394 16.094187 3.819288 C 13.322654 5.0210365 10.881639 6.680927 8.771068 8.799009 C 6.660497 10.91709 5.0043623 13.361861 3.802614 16.133393 C 2.6008653 18.904926 2 21.860432 2 25 C 2 28.139568 2.6008653 31.095074 3.802614 33.866607 C 5.0043623 36.63814 6.6642526 39.08291 8.782334 41.20099 C 10.900416 43.319073 13.345187 44.978963 16.11672 46.18071 C 18.888252 47.38246 21.843758 47.983326 24.983326 47.983326 Z M 22.437134 35.995944 C 22.046566 35.995944 21.693557 35.913325 21.378098 35.748085 C 21.06264 35.582844 20.754696 35.304944 20.454259 34.914376 L 14.798558 27.974313 C 14.633317 27.748985 14.501878 27.512394 14.404236 27.264534 C 14.306594 27.016673 14.257774 26.76506 14.257774 26.50969 C 14.257774 25.998946 14.430523 25.559563 14.776025 25.191528 C 15.121528 24.823492 15.549644 24.639477 16.060388 24.639477 C 16.390868 24.639477 16.687546 24.707075 16.950428 24.84227 C 17.21331 24.977468 17.487455 25.232836 17.77287 25.608382 L 22.347003 31.511942 L 31.968454 16.05453 C 32.389066 15.363524 32.929845 15.018026 33.590807 15.018026 C 34.071506 15.018026 34.507133 15.171998 34.8977 15.479946 C 35.28827 15.787894 35.48355 16.204744 35.48355 16.73051 C 35.48355 16.98588 35.423465 17.241249 35.30329 17.49662 C 35.183115 17.751992 35.05543 17.992338 34.920234 18.217666 L 24.329878 34.914376 C 24.08953 35.2749 23.811628 35.54529 23.49617 35.72555 C 23.18071 35.905814 22.827702 35.995944 22.437134 35.995944 Z" fill="black"/>
      </g>
    </g>
  </g>
</svg>
