<?xml version="1.0" encoding="UTF-8" standalone="no"?>
<!DOCTYPE svg PUBLIC "-//W3C//DTD SVG 1.1//EN" "http://www.w3.org/Graphics/SVG/1.1/DTD/svg11.dtd">
<svg xmlns="http://www.w3.org/2000/svg" xmlns:dc="http://purl.org/dc/elements/1.1/" xmlns:xl="http://www.w3.org/1999/xlink" version="1.1" viewBox="0 0 50 50" width="50" height="50">
  <defs/>
  <metadata> Produced by OmniGraffle 7.18.5\n2021-05-28 09:57:19 +0000</metadata>
  <g id="Canvas_1" fill-opacity="1" stroke-opacity="1" fill="none" stroke-dasharray="none" stroke="none">
    <title>Canvas 1</title>
    <g id="Canvas_1_Layer_1">
      <title>Layer 1</title>
      <g id="Graphic_10">
        <title>&#x1002C3;</title>
        <path d="M 11.030106 46.50398 C 11.45626 46.83391 11.937395 46.94732 12.473524 46.844216 C 13.009654 46.741115 13.593888 46.462744 14.226246 46.009096 L 25.134362 37.987816 L 36.0631 46.009096 C 36.695456 46.462744 37.27969 46.741115 37.81582 46.844216 C 38.35195 46.94732 38.833084 46.83391 39.25924 46.50398 C 39.68539 46.187803 39.943143 45.761656 40.0325 45.225526 C 40.121853 44.689397 40.035936 44.050175 39.774744 43.30784 L 35.46511 30.482042 L 46.47633 22.563864 C 47.12243 22.110216 47.5692 21.642828 47.816645 21.161686 C 48.06409 20.680544 48.10533 20.185663 47.940366 19.677028 C 47.775403 19.18214 47.452356 18.810978 46.971214 18.563534 C 46.49007 18.31609 45.85085 18.199243 45.05353 18.21299 L 31.547262 18.29547 L 27.44383 5.40781 C 27.196386 4.65173 26.88365 4.081242 26.50561 3.6963285 C 26.12757 3.311415 25.67049 3.1189613 25.134362 3.1189613 C 24.61198 3.1189613 24.161775 3.311415 23.783735 3.6963285 C 23.405695 4.081242 23.092958 4.65173 22.845513 5.40781 L 18.742082 18.29547 L 5.235814 18.21299 C 4.4384933 18.199243 3.7992718 18.31609 3.31813 18.563534 C 2.8369883 18.810978 2.5139408 19.18214 2.348978 19.677028 C 2.184015 20.185663 2.2252552 20.680544 2.4726995 21.161686 C 2.7201438 21.642828 3.1669116 22.110216 3.813016 22.563864 L 14.824233 30.482042 L 10.5146 43.30784 C 10.253409 44.050175 10.167492 44.689397 10.256847 45.225526 C 10.346201 45.761656 10.603952 46.187803 11.030106 46.50398 Z" fill="black"/>
      </g>
    </g>
  </g>
</svg>
