<?xml version="1.0" encoding="UTF-8" standalone="no"?>
<!DOCTYPE svg PUBLIC "-//W3C//DTD SVG 1.1//EN" "http://www.w3.org/Graphics/SVG/1.1/DTD/svg11.dtd">
<svg xmlns="http://www.w3.org/2000/svg" xmlns:dc="http://purl.org/dc/elements/1.1/" xmlns:xl="http://www.w3.org/1999/xlink" version="1.1" viewBox="612.4271 235.46606 50 22.300242" width="50" height="22.300242">
  <defs/>
  <metadata> Produced by OmniGraffle 7.18.5\n2021-05-28 09:47:36 +0000</metadata>
  <g id="Canvas_1" fill-opacity="1" stroke-opacity="1" fill="none" stroke-dasharray="none" stroke="none">
    <title>Canvas 1</title>
    <g id="Canvas_1_Layer_1">
      <title>Layer 1</title>
      <g id="Graphic_7">
        <title>&#x100360;</title>
        <path d="M 622.185 240.30868 C 622.185 238.96888 621.7088 237.82684 620.7564 236.88253 C 619.804 235.93821 618.6418 235.46606 617.26974 235.46606 C 616.3819 235.46606 615.5708 235.68398 614.8363 236.11982 C 614.10186 236.55566 613.5167 237.1408 613.0809 237.87527 C 612.64504 238.60973 612.4271 239.42086 612.4271 240.30868 C 612.4271 241.21264 612.64504 242.0278 613.0809 242.7542 C 613.5167 243.4806 614.10186 244.0617 614.8363 244.49754 C 615.5708 244.93338 616.3819 245.1513 617.26974 245.1513 C 618.18984 245.1513 619.0171 244.93338 619.7516 244.49754 C 620.48605 244.0617 621.0752 243.4806 621.5191 242.7542 C 621.96304 242.0278 622.185 241.21264 622.185 240.30868 Z M 640.1027 240.30868 C 640.1027 238.96888 639.6305 237.82684 638.6862 236.88253 C 637.7419 235.93821 636.59985 235.46606 635.26005 235.46606 C 634.3722 235.46606 633.5611 235.68398 632.82664 236.11982 C 632.0922 236.55566 631.5111 237.1408 631.0833 237.87527 C 630.6555 238.60973 630.44165 239.42086 630.44165 240.30868 C 630.44165 241.21264 630.6555 242.0278 631.0833 242.7542 C 631.5111 243.4806 632.0922 244.0617 632.82664 244.49754 C 633.5611 244.93338 634.3722 245.1513 635.26005 245.1513 C 636.164 245.1513 636.9792 244.93338 637.7056 244.49754 C 638.432 244.0617 639.0131 243.4806 639.4489 242.7542 C 639.88475 242.0278 640.1027 241.21264 640.1027 240.30868 Z M 658.093 240.30868 C 658.093 238.96888 657.6208 237.82684 656.6765 236.88253 C 655.7322 235.93821 654.5902 235.46606 653.2504 235.46606 C 652.3464 235.46606 651.5232 235.68398 650.7806 236.11982 C 650.0381 236.55566 649.4489 237.1408 649.0131 237.87527 C 648.57724 238.60973 648.3593 239.42086 648.3593 240.30868 C 648.3593 241.21264 648.57724 242.0278 649.0131 242.7542 C 649.4489 243.4806 650.0381 244.0617 650.7806 244.49754 C 651.5232 244.93338 652.3464 245.1513 653.2504 245.1513 C 654.1382 245.1513 654.9493 244.93338 655.6838 244.49754 C 656.41825 244.0617 657.0034 243.4806 657.4392 242.7542 C 657.8751 242.0278 658.093 241.21264 658.093 240.30868 Z" fill="black"/>
      </g>
    </g>
  </g>
</svg>
