<?xml version="1.0" encoding="UTF-8" standalone="no"?>
<!DOCTYPE svg PUBLIC "-//W3C//DTD SVG 1.1//EN" "http://www.w3.org/Graphics/SVG/1.1/DTD/svg11.dtd">
<svg xmlns="http://www.w3.org/2000/svg" xmlns:dc="http://purl.org/dc/elements/1.1/" xmlns:xl="http://www.w3.org/1999/xlink" version="1.1" viewBox="322.0797 222.2932 50 43.762077" width="50" height="43.762077">
  <defs/>
  <metadata> Produced by OmniGraffle 7.18.5\n2021-05-28 09:46:59 +0000</metadata>
  <g id="Canvas_1" fill-opacity="1" stroke-opacity="1" fill="none" stroke-dasharray="none" stroke="none">
    <title>Canvas 1</title>
    <g id="Canvas_1_Layer_1">
      <title>Layer 1</title>
      <g id="Graphic_9">
        <title>&#x1002C3;</title>
        <path d="M 330.8598 265.67823 C 331.28597 266.00816 331.7671 266.12157 332.30324 266.01847 C 332.83937 265.91537 333.4236 265.637 334.05596 265.18335 L 344.96407 257.16207 L 355.8928 265.18335 C 356.52517 265.637 357.1094 265.91537 357.64553 266.01847 C 358.18166 266.12157 358.6628 266.00816 359.08895 265.67823 C 359.5151 265.36205 359.77285 264.9359 359.8622 264.39978 C 359.95156 263.86365 359.86565 263.22443 359.60446 262.4821 L 355.29482 249.6563 L 366.30604 241.73812 C 366.95214 241.28447 367.3989 240.81708 367.64636 240.33594 C 367.8938 239.8548 367.93504 239.35991 367.77008 238.85128 C 367.6051 238.3564 367.28207 237.98523 366.80093 237.73779 C 366.3198 237.49034 365.68056 237.3735 364.88324 237.38724 L 351.37697 237.46972 L 347.27354 224.58206 C 347.0261 223.82598 346.71336 223.2555 346.33532 222.87058 C 345.9573 222.48567 345.5002 222.2932 344.96407 222.2932 C 344.4417 222.2932 343.9915 222.48567 343.61345 222.87058 C 343.2354 223.2555 342.92267 223.82598 342.67523 224.58206 L 338.5718 237.46972 L 325.06553 237.38724 C 324.2682 237.3735 323.629 237.49034 323.14784 237.73779 C 322.6667 237.98523 322.34365 238.3564 322.1787 238.85128 C 322.01373 239.35991 322.05497 239.8548 322.3024 240.33594 C 322.54986 240.81708 322.99662 241.28447 323.64273 241.73812 L 334.65395 249.6563 L 330.3443 262.4821 C 330.08312 263.22443 329.9972 263.86365 330.08656 264.39978 C 330.1759 264.9359 330.43366 265.36205 330.8598 265.67823 Z" fill="black"/>
      </g>
    </g>
  </g>
</svg>
