<?xml version="1.0" encoding="UTF-8" standalone="no"?>
<!DOCTYPE svg PUBLIC "-//W3C//DTD SVG 1.1//EN" "http://www.w3.org/Graphics/SVG/1.1/DTD/svg11.dtd">
<svg xmlns="http://www.w3.org/2000/svg" xmlns:dc="http://purl.org/dc/elements/1.1/" xmlns:xl="http://www.w3.org/1999/xlink" version="1.1" viewBox="480.89996 221.10535 50 45.96665" width="50" height="45.96665">
  <defs/>
  <metadata> Produced by OmniGraffle 7.18.5\n2021-05-28 09:46:59 +0000</metadata>
  <g id="Canvas_1" fill-opacity="1" stroke-opacity="1" fill="none" stroke-dasharray="none" stroke="none">
    <title>Canvas 1</title>
    <g id="Canvas_1_Layer_1">
      <title>Layer 1</title>
      <g id="Graphic_8">
        <title>&#x100063;</title>
        <path d="M 503.8833 267.072 C 507.02286 267.072 509.97836 266.47113 512.7499 265.2694 C 515.5214 264.06764 517.9662 262.40775 520.0843 260.28966 C 522.20236 258.17158 523.86225 255.7268 525.064 252.95528 C 526.26575 250.18375 526.8666 247.22824 526.8666 244.08867 C 526.8666 240.9491 526.26575 237.9936 525.064 235.22207 C 523.86225 232.45053 522.20236 230.00576 520.0843 227.88768 C 517.9662 225.7696 515.5177 224.1097 512.7386 222.90796 C 509.9596 221.7062 507.0003 221.10535 503.86076 221.10535 C 500.7212 221.10535 497.7657 221.7062 494.99415 222.90796 C 492.2226 224.1097 489.7816 225.7696 487.67103 227.88768 C 485.56046 230.00576 483.9043 232.45053 482.7026 235.22207 C 481.5008 237.9936 480.89996 240.9491 480.89996 244.08867 C 480.89996 247.22824 481.5008 250.18375 482.7026 252.95528 C 483.9043 255.7268 485.5642 258.17158 487.6823 260.28966 C 489.8004 262.40775 492.24515 264.06764 495.0167 265.2694 C 497.7882 266.47113 500.7437 267.072 503.8833 267.072 Z M 501.3371 255.08462 C 500.9465 255.08462 500.5935 255.002 500.27806 254.83676 C 499.9626 254.67152 499.65466 254.39362 499.3542 254.00305 L 493.6985 247.06299 C 493.5333 246.83766 493.40184 246.60107 493.3042 246.3532 C 493.20656 246.10535 493.15774 245.85373 493.15774 245.59836 C 493.15774 245.08762 493.3305 244.64824 493.676 244.2802 C 494.0215 243.91216 494.4496 243.72815 494.96035 243.72815 C 495.29083 243.72815 495.5875 243.79575 495.8504 243.93094 C 496.1133 244.06614 496.3874 244.3215 496.67283 244.69705 L 501.24697 250.6006 L 510.8684 235.1432 C 511.289 234.4522 511.8298 234.1067 512.4908 234.1067 C 512.9715 234.1067 513.4071 234.26067 513.79767 234.56862 C 514.18823 234.87657 514.3835 235.29342 514.3835 235.81918 C 514.3835 236.07455 514.3234 236.32992 514.20325 236.5853 C 514.0831 236.84066 513.9554 237.081 513.8202 237.30634 L 503.22984 254.00305 C 502.9895 254.36357 502.7116 254.63396 502.39613 254.81422 C 502.0807 254.9945 501.72767 255.08462 501.3371 255.08462 Z" fill="black"/>
      </g>
    </g>
  </g>
</svg>
