<?xml version="1.0" encoding="UTF-8" standalone="no"?>
<!DOCTYPE svg PUBLIC "-//W3C//DTD SVG 1.1//EN" "http://www.w3.org/Graphics/SVG/1.1/DTD/svg11.dtd">
<svg xmlns:dc="http://purl.org/dc/elements/1.1/" xmlns:xl="http://www.w3.org/1999/xlink" xmlns="http://www.w3.org/2000/svg" version="1.1" viewBox="0 0 50 50" width="50" height="50">
  <defs/>
  <g id="Canvas_2" stroke="none" stroke-opacity="1" stroke-dasharray="none" fill="none" fill-opacity="1">
    <title>Canvas 2</title>
    <g id="Canvas_2_Layer_1">
      <title>Layer 1</title>
      <g id="Graphic_13">
        <title>&#x100535;</title>
        <path d="M 9.603056 48.46119 L 40.51932 48.46119 C 43.18702 48.46119 45.18776 47.80277 46.52161 46.48591 C 47.85546 45.169053 48.522375 43.193797 48.522375 40.56008 L 48.522375 9.439919 C 48.522375 6.8062034 47.85546 4.8309467 46.52161 3.514089 C 45.18776 2.1972315 43.18702 1.5388126 40.51932 1.5388126 L 9.603056 1.5388126 C 6.935357 1.5388126 4.934613 2.1972315 3.600764 3.514089 C 2.2669147 4.8309467 1.6 6.8062034 1.6 9.439919 L 1.6 40.56008 C 1.6 43.193797 2.2669147 45.169053 3.600764 46.48591 C 4.934613 47.80277 6.935357 48.46119 9.603056 48.46119 Z M 9.654031 44.35771 C 8.379652 44.35771 7.402644 44.02213 6.722975 43.350956 C 6.043307 42.679783 5.703478 41.681535 5.703478 40.35618 L 5.703478 9.643818 C 5.703478 8.318465 6.043307 7.320217 6.722975 6.649044 C 7.402644 5.9778715 8.379652 5.64229 9.654031 5.64229 L 40.468344 5.64229 C 41.72573 5.64229 42.69849 5.9778715 43.386656 6.649044 C 44.07482 7.320217 44.418897 8.318465 44.418897 9.643818 L 44.418897 40.35618 C 44.418897 41.681535 44.07482 42.679783 43.386656 43.350956 C 42.69849 44.02213 41.72573 44.35771 40.468344 44.35771 Z M 18.166835 35.641006 C 19.254305 35.641006 19.798031 35.09728 19.798031 34.00981 L 19.798031 15.964703 C 19.798031 15.420968 19.632365 14.97919 19.301026 14.639356 C 18.969688 14.299522 18.532158 14.129607 17.988423 14.129607 C 17.580622 14.129607 17.219554 14.197573 16.905207 14.333507 C 16.59086 14.46944 16.2128 14.69033 15.771016 14.99618 L 11.896925 17.646874 C 11.319207 18.054675 11.030352 18.555923 11.030352 19.150633 C 11.030352 19.575426 11.179028 19.936494 11.476383 20.23385 C 11.773738 20.531204 12.109319 20.67988 12.483136 20.67988 C 12.687037 20.67988 12.873943 20.65864 13.04386 20.61616 C 13.213777 20.573681 13.443162 20.433502 13.732021 20.195618 L 16.459177 18.18211 L 16.612101 18.18211 L 16.612101 34.00981 C 16.612101 35.09728 17.13034 35.641006 18.166835 35.641006 Z M 26.47574 35.360644 L 37.02754 35.360644 C 37.41835 35.360644 37.749683 35.220464 38.02155 34.9401 C 38.293417 34.659738 38.42935 34.290174 38.42935 33.831398 C 38.42935 33.37262 38.293417 33.011553 38.02155 32.74818 C 37.749683 32.48481 37.41835 32.353126 37.02754 32.353126 L 29.610695 32.353126 L 29.610695 32.174714 L 34.606233 26.363578 C 35.540777 25.276108 36.322384 24.226886 36.951078 23.21588 C 37.57977 22.204872 37.894113 21.062197 37.894113 19.787819 C 37.894113 18.02068 37.295164 16.61039 36.09725 15.556904 C 34.899333 14.503418 33.29789 13.976683 31.292866 13.976683 C 29.780604 13.976683 28.421287 14.409965 27.214876 15.276542 C 26.008465 16.14312 25.235353 17.222077 24.89552 18.513447 C 24.878527 18.683364 24.857288 18.840535 24.8318 18.984964 C 24.806313 19.129394 24.79357 19.27807 24.79357 19.430995 C 24.79357 19.88977 24.921005 20.259335 25.17588 20.539698 C 25.430757 20.820061 25.77908 20.96024 26.220866 20.96024 C 26.577692 20.96024 26.866547 20.854044 27.08744 20.641648 C 27.30833 20.429252 27.503733 20.13615 27.67365 19.762331 C 27.996492 18.810796 28.472253 18.097154 29.100946 17.621386 C 29.72964 17.145619 30.50275 16.907738 31.420303 16.907738 C 32.456798 16.907738 33.280883 17.196593 33.892585 17.774311 C 34.504287 18.35203 34.810133 19.116645 34.810133 20.06818 C 34.810133 20.900774 34.53827 21.682381 33.994535 22.413025 C 33.4508 23.143669 32.87309 23.865805 32.26139 24.579457 L 25.532705 32.480563 C 25.158887 32.888364 24.97198 33.347134 24.97198 33.856885 C 24.97198 34.31566 25.107913 34.680977 25.37978 34.952845 C 25.651648 35.224712 26.016964 35.360644 26.47574 35.360644 Z" fill="black"/>
      </g>
    </g>
  </g>
</svg>
