<?xml version="1.0" encoding="UTF-8" standalone="no"?>
<!DOCTYPE svg PUBLIC "-//W3C//DTD SVG 1.1//EN" "http://www.w3.org/Graphics/SVG/1.1/DTD/svg11.dtd">
<svg xmlns:dc="http://purl.org/dc/elements/1.1/" xmlns:xl="http://www.w3.org/1999/xlink" xmlns="http://www.w3.org/2000/svg" version="1.1" viewBox="0 0 50 50" width="50" height="50">
  <defs/>
  <g id="Canvas_1" stroke="none" stroke-opacity="1" stroke-dasharray="none" fill="none" fill-opacity="1">
    <title>Canvas 1</title>
    <g id="Canvas_1_Layer_1">
      <title>Layer 1</title>
      <g id="Graphic_11">
        <title>&#x100533;</title>
        <path d="M 9.603056 48.46119 L 40.51932 48.46119 C 43.18702 48.46119 45.18776 47.80277 46.52161 46.48591 C 47.85546 45.169053 48.522375 43.193797 48.522375 40.56008 L 48.522375 9.439919 C 48.522375 6.8062034 47.85546 4.8309467 46.52161 3.514089 C 45.18776 2.1972315 43.18702 1.5388126 40.51932 1.5388126 L 9.603056 1.5388126 C 6.935357 1.5388126 4.934613 2.1972315 3.600764 3.514089 C 2.2669147 4.8309467 1.6 6.8062034 1.6 9.439919 L 1.6 40.56008 C 1.6 43.193797 2.2669147 45.169053 3.600764 46.48591 C 4.934613 47.80277 6.935357 48.46119 9.603056 48.46119 Z M 9.654031 44.35771 C 8.379652 44.35771 7.402644 44.02213 6.722975 43.350956 C 6.043307 42.679783 5.703478 41.681535 5.703478 40.35618 L 5.703478 9.643818 C 5.703478 8.318465 6.043307 7.320217 6.722975 6.649044 C 7.402644 5.9778715 8.379652 5.64229 9.654031 5.64229 L 40.468344 5.64229 C 41.72573 5.64229 42.69849 5.9778715 43.386656 6.649044 C 44.07482 7.320217 44.418897 8.318465 44.418897 9.643818 L 44.418897 40.35618 C 44.418897 41.681535 44.07482 42.679783 43.386656 43.350956 C 42.69849 44.02213 41.72573 44.35771 40.468344 44.35771 Z M 18.192323 35.641006 C 19.279792 35.641006 19.823519 35.09728 19.823519 34.00981 L 19.823519 15.964703 C 19.823519 15.420968 19.657852 14.97919 19.326514 14.639356 C 18.995175 14.299522 18.557645 14.129607 18.01391 14.129607 C 17.60611 14.129607 17.245041 14.197573 16.930694 14.333507 C 16.616348 14.46944 16.238288 14.69033 15.796503 14.99618 L 11.922413 17.646874 C 11.344695 18.054675 11.05584 18.555923 11.05584 19.150633 C 11.05584 19.575426 11.204515 19.936494 11.50187 20.23385 C 11.799225 20.531204 12.134806 20.67988 12.508624 20.67988 C 12.712524 20.67988 12.89943 20.65864 13.069347 20.61616 C 13.239265 20.573681 13.46865 20.433502 13.757508 20.195618 L 16.484664 18.18211 L 16.637589 18.18211 L 16.637589 34.00981 C 16.637589 35.09728 17.155828 35.641006 18.192323 35.641006 Z M 31.700665 35.946855 C 33.161952 35.946855 34.44056 35.50083 35.536525 34.608764 C 36.63249 33.7167 37.482063 32.450836 38.08527 30.811136 C 38.688474 29.171436 38.990073 27.221666 38.990073 24.96177 C 38.990073 22.70187 38.688474 20.747854 38.08527 19.099658 C 37.482063 17.451462 36.63249 16.185598 35.536525 15.30203 C 34.44056 14.41846 33.161952 13.976683 31.700665 13.976683 C 30.239378 13.976683 28.96077 14.41846 27.864806 15.30203 C 26.76884 16.185598 25.919268 17.451462 25.316062 19.099658 C 24.712856 20.747854 24.411258 22.70187 24.411258 24.96177 C 24.411258 27.221666 24.712856 29.171436 25.316062 30.811136 C 25.919268 32.450836 26.76884 33.7167 27.864806 34.608764 C 28.96077 35.50083 30.239378 35.946855 31.700665 35.946855 Z M 31.700665 32.862875 C 30.477262 32.862875 29.512997 32.15773 28.80784 30.747417 C 28.102685 29.337105 27.750112 27.408575 27.750112 24.96177 C 27.750112 22.514962 28.102685 20.586432 28.80784 19.17612 C 29.512997 17.765808 30.477262 17.060663 31.700665 17.060663 C 32.907077 17.060663 33.867094 17.765808 34.580746 19.17612 C 35.294398 20.586432 35.65122 22.514962 35.65122 24.96177 C 35.65122 27.408575 35.298646 29.337105 34.59349 30.747417 C 33.888334 32.15773 32.92407 32.862875 31.700665 32.862875 Z" fill="black"/>
      </g>
    </g>
  </g>
</svg>
