<?xml version="1.0" encoding="UTF-8" standalone="no"?>
<!DOCTYPE svg PUBLIC "-//W3C//DTD SVG 1.1//EN" "http://www.w3.org/Graphics/SVG/1.1/DTD/svg11.dtd">
<svg xmlns:dc="http://purl.org/dc/elements/1.1/" xmlns:xl="http://www.w3.org/1999/xlink" xmlns="http://www.w3.org/2000/svg" version="1.1" viewBox="0 0 50 50" width="50" height="50">
  <defs/>
  <g id="Canvas_3" stroke="none" stroke-opacity="1" stroke-dasharray="none" fill="none" fill-opacity="1">
    <title>Canvas 3</title>
    <g id="Canvas_3_Layer_1">
      <title>Layer 1</title>
      <g id="Graphic_15">
        <title>&#x100537;</title>
        <path d="M 9.604203 48.45975 L 40.51857 48.45975 C 43.186106 48.45975 45.186727 47.80137 46.520494 46.484593 C 47.85426 45.167817 48.521136 43.19268 48.521136 40.559127 L 48.521136 9.440873 C 48.521136 6.807319 47.85426 4.8321834 46.520494 3.5154066 C 45.186727 2.1986297 43.186106 1.5402512 40.51857 1.5402512 L 9.604203 1.5402512 C 6.936668 1.5402512 4.9360467 2.1986297 3.602279 3.5154066 C 2.2685116 4.8321834 1.6016379 6.807319 1.6016379 9.440873 L 1.6016379 40.559127 C 1.6016379 43.19268 2.2685116 45.167817 3.602279 46.484593 C 4.9360467 47.80137 6.936668 48.45975 9.604203 48.45975 Z M 9.655175 44.356523 C 8.380875 44.356523 7.403926 44.02096 6.724299 43.34983 C 6.044672 42.6787 5.704864 41.68051 5.704864 40.35524 L 5.704864 9.64476 C 5.704864 8.319488 6.044672 7.321301 6.724299 6.650169 C 7.403926 5.979038 8.380875 5.643477 9.655175 5.643477 L 40.4676 5.643477 C 41.72491 5.643477 42.69761 5.979038 43.38573 6.650169 C 44.073854 7.321301 44.41791 8.319488 44.41791 9.64476 L 44.41791 40.35524 C 44.41791 41.68051 44.073854 42.6787 43.38573 43.34983 C 42.69761 44.02096 41.72491 44.356523 40.4676 44.356523 Z M 18.040028 35.640353 C 19.12743 35.640353 19.671124 35.09666 19.671124 34.009257 L 19.671124 15.965257 C 19.671124 15.421556 19.505467 14.979805 19.17415 14.639991 C 18.842831 14.300178 18.405328 14.130274 17.861627 14.130274 C 17.45385 14.130274 17.092804 14.198236 16.778477 14.334161 C 16.46415 14.470086 16.086113 14.690962 15.644356 14.996794 L 11.770502 17.647325 C 11.19282 18.0551 10.903983 18.556318 10.903983 19.150991 C 10.903983 19.575758 11.052649 19.936804 11.349985 20.23414 C 11.647322 20.531478 11.982883 20.680144 12.356678 20.680144 C 12.560566 20.680144 12.74746 20.658906 12.917367 20.61643 C 13.087273 20.573953 13.316644 20.433782 13.605485 20.195912 L 16.332474 18.182528 L 16.48539 18.182528 L 16.48539 34.009257 C 16.48539 35.09666 17.003597 35.640353 18.040028 35.640353 Z M 34.758763 35.89521 C 35.268483 35.89521 35.655015 35.733803 35.91837 35.41098 C 36.181725 35.088158 36.3134 34.680388 36.3134 34.18766 L 36.3134 31.180325 L 37.68964 31.180325 C 38.658106 31.180325 39.142333 30.71309 39.142333 29.7786 C 39.142333 29.319854 39.010657 28.963055 38.7473 28.708195 C 38.483947 28.453335 38.131396 28.325907 37.68964 28.325907 L 36.3134 28.325907 L 36.3134 16.398517 C 36.3134 15.667918 36.079783 15.081749 35.61254 14.639991 C 35.145296 14.198234 34.53789 13.977359 33.7903 13.977359 C 33.0597 13.977359 32.448046 14.126025 31.955316 14.423361 C 31.462587 14.720698 31.003846 15.226163 30.57908 15.939771 C 30.052368 16.840277 29.504427 17.77475 28.93524 18.743217 C 28.366052 19.711686 27.796874 20.68014 27.227686 21.648607 C 26.6585 22.617075 26.114806 23.555796 25.59659 24.464797 C 25.078375 25.373797 24.598396 26.210575 24.156638 26.975155 C 23.95275 27.36594 23.81258 27.714244 23.73612 28.020076 C 23.659663 28.32591 23.621435 28.65722 23.621435 29.014025 C 23.621435 29.693652 23.821072 30.224603 24.220353 30.606893 C 24.619634 30.989183 25.14209 31.180325 25.787734 31.180325 L 33.22961 31.180325 L 33.22961 34.18766 C 33.22961 34.680388 33.35704 35.088158 33.6119 35.41098 C 33.86676 35.733803 34.249042 35.89521 34.758763 35.89521 Z M 33.22961 28.325907 L 26.9346 28.325907 L 26.9346 28.223963 C 27.24043 27.64628 27.58024 27.013388 27.954034 26.325266 C 28.32783 25.637143 28.73135 24.919298 29.164613 24.17171 C 29.597875 23.42412 30.039626 22.663799 30.48988 21.890723 C 30.94013 21.117648 31.38613 20.35308 31.827887 19.596994 C 32.269644 18.84091 32.694405 18.11457 33.10218 17.417952 L 33.22961 17.417952 Z" fill="black"/>
      </g>
    </g>
  </g>
</svg>
