<?xml version="1.0" encoding="UTF-8" standalone="no"?>
<!DOCTYPE svg PUBLIC "-//W3C//DTD SVG 1.1//EN" "http://www.w3.org/Graphics/SVG/1.1/DTD/svg11.dtd">
<svg xmlns="http://www.w3.org/2000/svg" xmlns:dc="http://purl.org/dc/elements/1.1/" xmlns:xl="http://www.w3.org/1999/xlink" version="1.1" viewBox="0 0 50 50" width="50" height="50">
  <defs/>
  <metadata> Produced by OmniGraffle 7.18.5\n2021-05-28 09:57:56 +0000</metadata>
  <g id="Canvas_1" fill-opacity="1" stroke-opacity="1" fill="none" stroke-dasharray="none" stroke="none">
    <title>Canvas 1</title>
    <g id="Canvas_1_Layer_1">
      <title>Layer 1</title>
      <g id="Graphic_15">
        <title>&#x100360;</title>
        <path d="M 11.757869 25.842615 C 11.757869 24.502818 11.281684 23.36078 10.329298 22.416465 C 9.376912 21.47215 8.214696 21 6.842615 21 C 5.954798 21 5.143668 21.217916 4.409201 21.653753 C 3.674734 22.08959 3.0895906 22.674734 2.653753 23.4092 C 2.2179155 24.143668 2 24.954798 2 25.842615 C 2 26.746575 2.2179155 27.56174 2.653753 28.288136 C 3.0895906 29.014532 3.674734 29.59564 4.409201 30.031477 C 5.143668 30.467315 5.954798 30.68523 6.842615 30.68523 C 7.7627165 30.68523 8.589988 30.467315 9.324455 30.031477 C 10.058922 29.59564 10.648101 29.014532 11.09201 28.288136 C 11.535918 27.56174 11.757869 26.746575 11.757869 25.842615 Z M 29.675545 25.842615 C 29.675545 24.502818 29.203395 23.36078 28.25908 22.416465 C 27.314765 21.47215 26.172727 21 24.83293 21 C 23.945113 21 23.133983 21.217916 22.399516 21.653753 C 21.66505 22.08959 21.08394 22.674734 20.656174 23.4092 C 20.228408 24.143668 20.014528 24.954798 20.014528 25.842615 C 20.014528 26.746575 20.228408 27.56174 20.656174 28.288136 C 21.08394 29.014532 21.66505 29.59564 22.399516 30.031477 C 23.133983 30.467315 23.945113 30.68523 24.83293 30.68523 C 25.73689 30.68523 26.552054 30.467315 27.27845 30.031477 C 28.004846 29.59564 28.585954 29.014532 29.021792 28.288136 C 29.45763 27.56174 29.675545 26.746575 29.675545 25.842615 Z M 47.66586 25.842615 C 47.66586 24.502818 47.19371 23.36078 46.249395 22.416465 C 45.30508 21.47215 44.16304 21 42.823245 21 C 41.919285 21 41.09605 21.217916 40.35351 21.653753 C 39.610973 22.08959 39.021794 22.674734 38.585956 23.4092 C 38.15012 24.143668 37.932203 24.954798 37.932203 25.842615 C 37.932203 26.746575 38.15012 27.56174 38.585956 28.288136 C 39.021794 29.014532 39.610973 29.59564 40.35351 30.031477 C 41.09605 30.467315 41.919285 30.68523 42.823245 30.68523 C 43.71106 30.68523 44.52219 30.467315 45.25666 30.031477 C 45.991126 29.59564 46.57627 29.014532 47.012107 28.288136 C 47.447944 27.56174 47.66586 26.746575 47.66586 25.842615 Z" fill="black"/>
      </g>
    </g>
  </g>
</svg>
