<?xml version="1.0" encoding="UTF-8" standalone="no"?>
<!DOCTYPE svg PUBLIC "-//W3C//DTD SVG 1.1//EN" "http://www.w3.org/Graphics/SVG/1.1/DTD/svg11.dtd">
<svg xmlns:dc="http://purl.org/dc/elements/1.1/" xmlns="http://www.w3.org/2000/svg" version="1.1" xmlns:xl="http://www.w3.org/1999/xlink" viewBox="0 0 50 50" width="50" height="50">
  <defs/>
  <g id="Canvas_1" stroke-opacity="1" stroke-dasharray="none" stroke="none" fill="none" fill-opacity="1">
    <title>Canvas 1</title>
    <g id="Canvas_1_Layer_1">
      <title>Layer 1</title>
      <g id="Graphic_8">
        <title>􀣩</title>
        <path d="M 5.511652 15.422992 C 5.309084 15.582153 5.110136 15.643646 4.9148024 15.607473 C 4.719469 15.5713 4.571162 15.470018 4.469878 15.303622 C 4.368594 15.137227 4.3613596 14.931045 4.4481745 14.685069 L 5.164394 12.471299 L 3.319586 11.103971 C 3.131487 10.959279 3.026587 10.789269 3.0048834 10.593936 C 2.9831797 10.398602 3.033821 10.228592 3.1568088 10.0839 C 3.2797966 9.939209 3.457041 9.866864 3.6885476 9.866864 L 5.989132 9.866864 L 6.748759 7.501169 C 6.806635 7.284132 6.926004 7.14306 7.1068685 7.0779485 C 7.287733 7.012837 7.4649775 7.0164545 7.638607 7.0888 C 7.812237 7.161146 7.927989 7.298601 7.985865 7.501169 L 8.745492 9.866864 L 11.024373 9.866864 C 11.255879 9.866864 11.433124 9.939209 11.556112 10.0839 C 11.6791 10.228592 11.729741 10.398602 11.708037 10.593936 C 11.686333 10.789269 11.581433 10.959279 11.393334 11.103971 L 9.57023 12.471299 L 10.28645 14.685069 C 10.373265 14.931045 10.36603 15.137227 10.264746 15.303622 C 10.163462 15.470018 10.011538 15.5713 9.80897 15.607473 C 9.606402 15.643646 9.396602 15.582153 9.179565 15.422992 L 7.378164 14.055664 Z M 5.511652 28.510278 C 5.309084 28.66944 5.110136 28.730932 4.9148024 28.69476 C 4.719469 28.658586 4.571162 28.557303 4.469878 28.390908 C 4.368594 28.224513 4.3613596 28.01833 4.4481745 27.772355 L 5.164394 25.558585 L 3.319586 24.191257 C 3.131487 24.046565 3.026587 23.880172 3.0048834 23.692073 C 2.9831797 23.503974 3.033821 23.337582 3.1568088 23.19289 C 3.2797966 23.048198 3.457041 22.975854 3.6885476 22.975854 L 5.989132 22.975854 L 6.748759 20.588455 C 6.806635 20.385887 6.926004 20.248432 7.1068685 20.176086 C 7.287733 20.10374 7.4649775 20.10374 7.638607 20.176086 C 7.812237 20.248432 7.927989 20.385887 7.985865 20.588455 L 8.745492 22.975854 L 11.024373 22.975854 C 11.255879 22.975854 11.433124 23.048198 11.556112 23.19289 C 11.6791 23.337582 11.729741 23.503974 11.708037 23.692073 C 11.686333 23.880172 11.581433 24.046565 11.393334 24.191257 L 9.57023 25.558585 L 10.28645 27.772355 C 10.373265 28.01833 10.36603 28.224513 10.264746 28.390908 C 10.163462 28.557303 10.011538 28.658586 9.80897 28.69476 C 9.606402 28.730932 9.396602 28.66944 9.179565 28.510278 L 7.378164 27.14295 Z M 5.511652 41.662675 C 5.309084 41.821835 5.110136 41.88333 4.9148024 41.847156 C 4.719469 41.810983 4.571162 41.7097 4.469878 41.543305 C 4.368594 41.37691 4.3613596 41.170727 4.4481745 40.92475 L 5.164394 38.71098 L 3.319586 37.343653 C 3.131487 37.19896 3.026587 37.02895 3.0048834 36.83362 C 2.9831797 36.638285 3.033821 36.47189 3.1568088 36.334435 C 3.2797966 36.19698 3.457041 36.12825 3.6885476 36.12825 L 5.989132 36.12825 L 6.748759 33.74085 C 6.806635 33.538283 6.926004 33.40083 7.1068685 33.328483 C 7.287733 33.256137 7.4649775 33.256137 7.638607 33.328483 C 7.812237 33.40083 7.927989 33.538283 7.985865 33.74085 L 8.745492 36.12825 L 11.024373 36.12825 C 11.255879 36.12825 11.433124 36.19698 11.556112 36.334435 C 11.6791 36.47189 11.729741 36.638285 11.708037 36.83362 C 11.686333 37.02895 11.581433 37.19896 11.393334 37.343653 L 9.57023 38.71098 L 10.28645 40.92475 C 10.373265 41.170727 10.36603 41.37691 10.264746 41.543305 C 10.163462 41.7097 10.011538 41.810983 9.80897 41.847156 C 9.606402 41.88333 9.396602 41.821835 9.179565 41.662675 L 7.378164 40.295346 Z M 17.795904 13.599888 C 17.303953 13.599888 16.88797 13.433495 16.547945 13.100704 C 16.20792 12.767914 16.03791 12.355549 16.03791 11.863598 C 16.03791 11.371646 16.20792 10.955664 16.547945 10.615639 C 16.88797 10.275614 17.303953 10.105604 17.795904 10.105604 L 45.18588 10.105604 C 45.67783 10.105604 46.09743 10.275614 46.44469 10.615639 C 46.79195 10.955664 46.965576 11.371646 46.965576 11.863598 C 46.965576 12.355549 46.79195 12.767914 46.44469 13.100704 C 46.09743 13.433495 45.67783 13.599888 45.18588 13.599888 Z M 17.795904 26.73058 C 17.303953 26.73058 16.88797 26.56057 16.547945 26.220546 C 16.20792 25.88052 16.03791 25.46454 16.03791 24.972587 C 16.03791 24.480636 16.20792 24.06827 16.547945 23.73548 C 16.88797 23.40269 17.303953 23.236297 17.795904 23.236297 L 45.18588 23.236297 C 45.67783 23.236297 46.09743 23.40269 46.44469 23.73548 C 46.79195 24.06827 46.965576 24.480636 46.965576 24.972587 C 46.965576 25.46454 46.79195 25.88052 46.44469 26.220546 C 46.09743 26.56057 45.67783 26.73058 45.18588 26.73058 Z M 17.795904 39.83957 C 17.303953 39.83957 16.88797 39.673177 16.547945 39.340387 C 16.20792 39.007596 16.03791 38.59523 16.03791 38.10328 C 16.03791 37.61133 16.20792 37.195347 16.547945 36.85532 C 16.88797 36.515297 17.303953 36.345287 17.795904 36.345287 L 45.18588 36.345287 C 45.67783 36.345287 46.09743 36.515297 46.44469 36.85532 C 46.79195 37.195347 46.965576 37.61133 46.965576 38.10328 C 46.965576 38.59523 46.79195 39.007596 46.44469 39.340387 C 46.09743 39.673177 45.67783 39.83957 45.18588 39.83957 Z" fill="black"/>
      </g>
    </g>
  </g>
</svg>
