<?xml version="1.0" encoding="UTF-8" standalone="no"?>
<!DOCTYPE svg PUBLIC "-//W3C//DTD SVG 1.1//EN" "http://www.w3.org/Graphics/SVG/1.1/DTD/svg11.dtd">
<svg xmlns="http://www.w3.org/2000/svg" xmlns:dc="http://purl.org/dc/elements/1.1/" xmlns:xl="http://www.w3.org/1999/xlink" version="1.1" viewBox="0 0 50 50" width="50" height="50">
  <defs/>
  <metadata> Produced by OmniGraffle 7.18.5\n2021-05-28 09:56:54 +0000</metadata>
  <g id="Canvas_1" fill-opacity="1" stroke-opacity="1" fill="none" stroke-dasharray="none" stroke="none">
    <title>Canvas 1</title>
    <g id="Canvas_1_Layer_1">
      <title>Layer 1</title>
      <g id="Graphic_6">
        <title>&#x10039E;</title>
        <path d="M 19.746101 42.92203 L 30.66586 42.92203 L 30.66586 29.144587 C 30.66586 28.715617 30.533385 28.36866 30.268433 28.10371 C 30.00348 27.838757 29.656525 27.706283 29.227555 27.706283 L 21.20333 27.706283 C 20.761744 27.706283 20.40848 27.838757 20.143528 28.10371 C 19.878576 28.36866 19.746101 28.715617 19.746101 29.144587 Z M 12.327479 44.87131 L 37.93308 44.87131 C 39.283075 44.87131 40.33025 44.50543 41.07464 43.773656 C 41.81903 43.041884 42.19122 42.013633 42.19122 40.68887 L 42.19122 19.776684 L 39.144285 17.694928 L 39.144285 39.912945 C 39.144285 40.531166 38.986577 41.00429 38.67116 41.332324 C 38.35574 41.66036 37.895234 41.824375 37.28963 41.824375 L 12.970931 41.824375 C 12.365326 41.824375 11.901667 41.66036 11.57994 41.332324 C 11.258212 41.00429 11.09735 40.531166 11.09735 39.912945 L 11.09735 17.713853 L 8.050416 19.776684 L 8.050416 40.68887 C 8.050416 42.013633 8.42576 43.041884 9.176457 43.773656 C 9.927155 44.50543 10.977485 44.87131 12.327479 44.87131 Z M 2.6 23.807721 C 2.6 24.19884 2.7450907 24.54895 3.0352763 24.858062 C 3.325462 25.167173 3.722884 25.321726 4.227555 25.321726 C 4.492507 25.321726 4.735376 25.258643 4.9561696 25.132475 C 5.176963 25.006308 5.388291 24.867525 5.590159 24.716124 L 24.53414 8.819076 C 24.748626 8.629825 24.97257 8.535201 25.20598 8.535201 C 25.43939 8.535201 25.663335 8.629825 25.87782 8.819076 L 44.8218 24.716124 C 45.011053 24.867525 45.21607 25.006308 45.436866 25.132475 C 45.65766 25.258643 45.90053 25.321726 46.16548 25.321726 C 46.60707 25.321726 46.985565 25.192406 47.300984 24.933762 C 47.616403 24.67512 47.77411 24.3187 47.77411 23.864497 C 47.77411 23.334592 47.578554 22.90563 47.187434 22.577593 L 27.48645 6.018168 C 26.77991 5.42518 26.019762 5.1286904 25.20598 5.1286904 C 24.3922 5.1286904 23.63205 5.42518 22.92551 6.018168 L 3.205602 22.577593 C 2.8018653 22.90563 2.6 23.315667 2.6 23.807721 Z M 37.44103 15.27252 L 42.19122 19.303558 L 42.19122 10.541257 C 42.19122 10.124903 42.068207 9.793718 41.82218 9.547691 C 41.576153 9.301664 41.24497 9.178653 40.828615 9.178653 L 38.803634 9.178653 C 38.399897 9.178653 38.071866 9.301664 37.81953 9.547691 C 37.567195 9.793718 37.44103 10.124903 37.44103 10.541257 Z" fill="black"/>
      </g>
    </g>
  </g>
</svg>
