<?xml version="1.0" encoding="UTF-8" standalone="no"?>
<!DOCTYPE svg PUBLIC "-//W3C//DTD SVG 1.1//EN" "http://www.w3.org/Graphics/SVG/1.1/DTD/svg11.dtd">
<svg xmlns:xl="http://www.w3.org/1999/xlink" xmlns:dc="http://purl.org/dc/elements/1.1/" xmlns="http://www.w3.org/2000/svg" version="1.1" viewBox="0 0 50 50" width="50" height="50">
  <defs/>
  <g id="Canvas_1" stroke="none" stroke-opacity="1" fill="none" stroke-dasharray="none" fill-opacity="1">
    <title>Canvas 1</title>
    <g id="Canvas_1_Layer_1">
      <title>Layer 1</title>
      <g id="Graphic_7">
        <title>&#x1008CC;</title>
        <path d="M 23.15342 47.098975 L 27.04453 47.098975 C 27.594365 47.098975 28.0596 46.94742 28.440256 46.64431 C 28.82091 46.341194 29.067626 45.914727 29.180413 45.364893 L 30.280075 40.712477 C 30.688925 40.571494 31.09072 40.423464 31.485473 40.268383 C 31.880226 40.1133 32.253825 39.951174 32.606283 39.781994 L 36.68772 42.27738 C 37.138866 42.559347 37.607627 42.67918 38.09402 42.636886 C 38.58041 42.59459 39.013926 42.38312 39.39458 42.002465 L 42.12259 39.295605 C 42.50324 38.91495 42.71824 38.47086 42.76758 37.963322 C 42.816926 37.455784 42.68652 36.97645 42.376356 36.525303 L 39.88097 32.48616 C 40.064247 32.119604 40.2299 31.746005 40.37793 31.36535 C 40.525964 30.984697 40.66342 30.60405 40.790305 30.223394 L 45.485015 29.102585 C 46.02075 28.9898 46.44017 28.743082 46.74328 28.362428 C 47.046396 27.981774 47.19795 27.516537 47.19795 26.966703 L 47.19795 23.139034 C 47.19795 22.603298 47.046396 22.14511 46.74328 21.764456 C 46.44017 21.383802 46.02075 21.137086 45.485015 21.0243 L 40.8326 19.90349 C 40.691617 19.466443 40.54006 19.057598 40.37793 18.676944 C 40.2158 18.29629 40.064247 17.936789 39.923264 17.59843 L 42.41865 13.495845 C 42.714715 13.044699 42.84512 12.575938 42.809876 12.089546 C 42.77463 11.603155 42.559635 11.169639 42.16488 10.788984 L 39.39458 8.060977 C 38.99983 7.7085195 38.576885 7.500573 38.12574 7.43713 C 37.674594 7.373688 37.216406 7.475899 36.75116 7.743767 L 32.606283 10.302596 C 32.267923 10.119318 31.904898 9.950141 31.517194 9.795059 C 31.12949 9.639978 30.717122 9.491948 30.280075 9.350965 L 29.180413 4.635107 C 29.067626 4.099372 28.82091 3.676429 28.440256 3.3662665 C 28.0596 3.056104 27.594365 2.901025 27.04453 2.901025 L 23.15342 2.901025 C 22.603586 2.901025 22.13835 3.056104 21.757695 3.3662665 C 21.37704 3.676429 21.123275 4.099372 20.99639 4.635107 L 19.896728 9.30867 C 19.487878 9.449653 19.082558 9.601208 18.680756 9.763338 C 18.278955 9.925469 17.90183 10.09817 17.549373 10.281448 L 13.446788 7.743767 C 12.981544 7.475899 12.519832 7.3701635 12.061637 7.426557 C 11.603442 7.48295 11.176975 7.694421 10.782223 8.060977 L 8.033068 10.788984 C 7.638316 11.169639 7.419795 11.603155 7.3775 12.089546 C 7.3352055 12.575938 7.469137 13.044699 7.7793 13.495845 L 10.253539 17.59843 C 10.112556 17.936789 9.961002 18.29629 9.798871 18.676944 C 9.636741 19.057598 9.492235 19.466443 9.365351 19.90349 L 4.712935 21.0243 C 4.1631013 21.137086 3.7401586 21.383802 3.4440943 21.764456 C 3.14803 22.14511 3 22.603298 3 23.139034 L 3 26.966703 C 3 27.516537 3.14803 27.981774 3.4440943 28.362428 C 3.7401586 28.743082 4.1631013 28.9898 4.712935 29.102585 L 9.407645 30.223394 C 9.520432 30.60405 9.654364 30.984697 9.809445 31.36535 C 9.964526 31.746005 10.126654 32.119604 10.295834 32.48616 L 7.821595 36.525303 C 7.511432 36.97645 7.381025 37.455784 7.430369 37.963322 C 7.479713 38.47086 7.694709 38.91495 8.075363 39.295605 L 10.782223 42.002465 C 11.162877 42.38312 11.596393 42.59459 12.082785 42.636886 C 12.569176 42.67918 13.044986 42.559347 13.51023 42.27738 L 17.57052 39.781994 C 17.922978 39.951174 18.296577 40.1133 18.69133 40.268383 C 19.086082 40.423464 19.487878 40.571494 19.896728 40.712477 L 20.99639 45.364893 C 21.123275 45.914727 21.37704 46.341194 21.757695 46.64431 C 22.13835 46.94742 22.603586 47.098975 23.15342 47.098975 Z M 25.098975 32.465013 C 23.73144 32.465013 22.480235 32.12666 21.345322 31.44994 C 20.210408 30.77322 19.30813 29.86742 18.638461 28.732506 C 17.968792 27.597593 17.633963 26.346388 17.633963 24.978853 C 17.633963 23.611318 17.972317 22.36716 18.649035 21.246346 C 19.325753 20.125532 20.22803 19.226778 21.355895 18.55006 C 22.48376 17.873342 23.73144 17.534987 25.098975 17.534987 C 26.46651 17.534987 27.717716 17.873342 28.85263 18.55006 C 29.987542 19.226778 30.88982 20.125532 31.55949 21.246346 C 32.22916 22.36716 32.563988 23.611318 32.563988 24.978853 C 32.563988 26.346388 32.22916 27.597593 31.55949 28.732506 C 30.88982 29.86742 29.987542 30.77322 28.85263 31.44994 C 27.717716 32.12666 26.46651 32.465013 25.098975 32.465013 Z" fill="black"/>
      </g>
    </g>
  </g>
</svg>
