<?xml version="1.0" encoding="UTF-8" standalone="no"?>
<!DOCTYPE svg PUBLIC "-//W3C//DTD SVG 1.1//EN" "http://www.w3.org/Graphics/SVG/1.1/DTD/svg11.dtd">
<svg xmlns="http://www.w3.org/2000/svg" xmlns:dc="http://purl.org/dc/elements/1.1/" version="1.1" xmlns:xl="http://www.w3.org/1999/xlink" viewBox="0 0 50 50" width="50" height="50">
  <defs/>
  <g id="Canvas_1" stroke-opacity="1" fill="none" fill-opacity="1" stroke="none" stroke-dasharray="none">
    <title>Canvas 1</title>
    <g id="Canvas_1_Layer_1">
      <title>Layer 1</title>
      <g id="Graphic_7">
        <title>&#x10074B;</title>
        <path d="M 17.733374 35.47966 L 32.37459 35.47966 C 33.299383 35.47966 33.94634 35.34949 34.315482 35.08915 C 34.684623 34.828808 34.86919 34.442187 34.86919 33.929276 C 34.86919 33.183223 34.64188 32.39444 34.187255 31.5629 C 33.73263 30.731363 33.079842 29.952294 32.228876 29.22567 C 31.37791 28.499045 30.348216 27.908428 29.139766 27.453802 C 27.931316 26.999176 26.5694 26.771867 25.05398 26.771867 C 23.546333 26.771867 22.188304 26.999176 20.979853 27.453802 C 19.771403 27.908428 18.739767 28.499045 17.884915 29.22567 C 17.030063 29.952294 16.377276 30.731363 15.926536 31.5629 C 15.475796 32.39444 15.250429 33.183223 15.250429 33.929276 C 15.250429 34.442187 15.434996 34.828808 15.804137 35.08915 C 16.173278 35.34949 16.81635 35.47966 17.733374 35.47966 Z M 25.065638 24.68526 C 25.897176 24.68526 26.666532 24.45795 27.373728 24.003325 C 28.080924 23.5487 28.65017 22.932826 29.08148 22.155688 C 29.512793 21.37855 29.728445 20.504282 29.728445 19.532858 C 29.728445 18.576978 29.512793 17.720196 29.08148 16.962486 C 28.65017 16.204776 28.080924 15.608331 27.373728 15.173134 C 26.666532 14.737936 25.897176 14.52034 25.065638 14.52034 C 24.2341 14.52034 23.464745 14.741822 22.757549 15.18479 C 22.050353 15.62776 21.481107 16.230033 21.049795 16.991629 C 20.618484 17.753224 20.40283 18.608064 20.40283 19.556173 C 20.40283 20.519824 20.618484 21.388263 21.049795 22.161516 C 21.481107 22.93477 22.050353 23.5487 22.757549 24.003325 C 23.464745 24.45795 24.2341 24.68526 25.065638 24.68526 Z M 5.132137 35.47966 L 13.979814 35.47966 C 13.67673 35.03669 13.532961 34.50436 13.548504 33.882648 C 13.564047 33.260937 13.707815 32.60815 13.979814 31.92427 C 14.251812 31.240387 14.626776 30.577886 15.104716 29.936747 C 15.582656 29.295608 16.13636 28.730248 16.765841 28.24065 C 16.113045 27.805454 15.36506 27.446032 14.521865 27.162377 C 13.67867 26.87872 12.71309 26.736896 11.625096 26.736896 C 10.311732 26.736896 9.128557 26.952548 8.075534 27.38386 C 7.022512 27.815172 6.12493 28.382475 5.382763 29.085785 C 4.640596 29.789095 4.0713504 30.556508 3.67501 31.388046 C 3.2786692 32.219584 3.080502 33.039453 3.080502 33.847677 C 3.080502 34.36836 3.23787 34.770523 3.552611 35.05418 C 3.867352 35.337834 4.3938556 35.47966 5.132137 35.47966 Z M 11.625096 24.953372 C 12.355606 24.953372 13.027821 24.755205 13.64176 24.358864 C 14.2557 23.962523 14.749175 23.424363 15.122202 22.744367 C 15.495228 22.06437 15.681739 21.30473 15.681739 20.46542 C 15.681739 19.62611 15.495228 18.878126 15.122202 18.221444 C 14.749175 17.564762 14.253757 17.047973 13.635932 16.67106 C 13.018107 16.294148 12.347835 16.105695 11.625096 16.105695 C 10.910129 16.105695 10.243743 16.298034 9.625918 16.682718 C 9.008093 17.067401 8.508789 17.590019 8.127991 18.250586 C 7.747193 18.911154 7.5606825 19.657196 7.568454 20.488734 C 7.568454 21.320272 7.754964 22.074085 8.127991 22.750195 C 8.501017 23.426306 8.996436 23.962523 9.614261 24.358864 C 10.232086 24.755205 10.902357 24.953372 11.625096 24.953372 Z M 44.975825 35.47966 C 45.714107 35.47966 46.24061 35.337834 46.55535 35.05418 C 46.87009 34.770523 47.02746 34.36836 47.02746 33.847677 C 47.02746 33.039453 46.831236 32.219584 46.43878 31.388046 C 46.046326 30.556508 45.47708 29.789095 44.73103 29.085785 C 43.984975 28.382475 43.08545 27.815172 42.03243 27.38386 C 40.979406 26.952548 39.79623 26.736896 38.482866 26.736896 C 37.394872 26.736896 36.429292 26.87872 35.586097 27.162377 C 34.7429 27.446032 33.994917 27.805454 33.34212 28.24065 C 33.971603 28.730248 34.525306 29.295608 35.003246 29.936747 C 35.481186 30.577886 35.85615 31.240387 36.12815 31.92427 C 36.400147 32.60815 36.543915 33.260937 36.55946 33.882648 C 36.575 34.50436 36.431232 35.03669 36.12815 35.47966 Z M 38.482866 24.953372 C 39.205605 24.953372 39.875877 24.755205 40.4937 24.358864 C 41.111527 23.962523 41.606945 23.426306 41.97997 22.750195 C 42.353 22.074085 42.53951 21.320272 42.53951 20.488734 C 42.53951 19.657196 42.351055 18.911154 41.974143 18.250586 C 41.59723 17.590019 41.09987 17.067401 40.482045 16.682718 C 39.86422 16.298034 39.197833 16.105695 38.482866 16.105695 C 37.760127 16.105695 37.089855 16.294148 36.47203 16.67106 C 35.854205 17.047973 35.358787 17.564762 34.98576 18.221444 C 34.612734 18.878126 34.426224 19.62611 34.426224 20.46542 C 34.426224 21.30473 34.612734 22.06437 34.98576 22.744367 C 35.358787 23.424363 35.852263 23.962523 36.4662 24.358864 C 37.08014 24.755205 37.752356 24.953372 38.482866 24.953372 Z" fill="black"/>
      </g>
    </g>
  </g>
</svg>
