<?xml version="1.0" encoding="UTF-8" standalone="no"?>
<!DOCTYPE svg PUBLIC "-//W3C//DTD SVG 1.1//EN" "http://www.w3.org/Graphics/SVG/1.1/DTD/svg11.dtd">
<svg width="100%" height="100%" viewBox="0 0 500 500" version="1.1" xmlns="http://www.w3.org/2000/svg" xmlns:xlink="http://www.w3.org/1999/xlink" xml:space="preserve" xmlns:serif="http://www.serif.com/" style="fill-rule:evenodd;clip-rule:evenodd;stroke-linejoin:round;stroke-miterlimit:2;">

    <style>
        .heart {
            animation: colors 5s infinite ease-in-out;
            animation-delay: var(--delay);
        }
    
        @keyframes colors {
            0% {
                fill: rgb(250,250,250);
            }
            50% {
                fill: rgba(255,59,48, 0.05);
            }
            100% {
                fill: rgb(250,250,250);
            }
        }
    </style>
    
    <path class="heart" id="heart" d="M70.87,8.049C62.304,8.049 52.173,14.375 46.046,24.888C44.392,21.09 38.494,16.954 31.492,16.954C25.849,16.954 10,24.007 10,46.782C10,76.176 39.739,82.215 45.752,91.349C46.167,91.981 47.495,92.453 48.005,90.953C52.799,76.796 90,60.799 90,31.992C90,15.836 79.449,8.049 70.882,8.049L70.87,8.049Z" />
    
    <use class="heart" xlink:href="#heart" x="100" y="0" style="--delay: -1s"    />
    <use class="heart" xlink:href="#heart" x="200" y="0" style="--delay: -2s"      />
    <use class="heart" xlink:href="#heart" x="300" y="0" style="--delay: -3s"    />
    <use class="heart" xlink:href="#heart" x="400" y="0" style="--delay: -4s"      />
    
    <use class="heart" xlink:href="#heart" x="000" y="100" style="--delay: -4s"    />
    <use class="heart" xlink:href="#heart" x="100" y="100" style="--delay: -0s"      />
    <use class="heart" xlink:href="#heart" x="200" y="100" style="--delay: -1s"    />
    <use class="heart" xlink:href="#heart" x="300" y="100" style="--delay: -2s"      />
    <use class="heart" xlink:href="#heart" x="400" y="100" style="--delay: -3s"    />
    
    <use class="heart" xlink:href="#heart" x="000" y="200" style="--delay: -3s"      />
    <use class="heart" xlink:href="#heart" x="100" y="200" style="--delay: -4s"    />
    <use class="heart" xlink:href="#heart" x="200" y="200" style="--delay: -0s"      />
    <use class="heart" xlink:href="#heart" x="300" y="200" style="--delay: -1s"    />
    <use class="heart" xlink:href="#heart" x="400" y="200" style="--delay: -2s"      />
    
    <use class="heart" xlink:href="#heart" x="000" y="300" style="--delay: -2s"    />
    <use class="heart" xlink:href="#heart" x="100" y="300" style="--delay: -3s"      />
    <use class="heart" xlink:href="#heart" x="200" y="300" style="--delay: -4s"    />
    <use class="heart" xlink:href="#heart" x="300" y="300" style="--delay: -0s"      />
    <use class="heart" xlink:href="#heart" x="400" y="300" style="--delay: -1s"    />
    
    <use class="heart" xlink:href="#heart" x="000" y="400" style="--delay: -1s"      />
    <use class="heart" xlink:href="#heart" x="100" y="400" style="--delay: -2s"    />
    <use class="heart" xlink:href="#heart" x="200" y="400" style="--delay: -3s"      />
    <use class="heart" xlink:href="#heart" x="300" y="400" style="--delay: -4s"    />
    <use class="heart" xlink:href="#heart" x="400" y="400" style="--delay: -0s"      />
    
</svg>
