<?xml version="1.0" encoding="UTF-8" standalone="no"?>
<!DOCTYPE svg PUBLIC "-//W3C//DTD SVG 1.1//EN" "http://www.w3.org/Graphics/SVG/1.1/DTD/svg11.dtd">
<svg xmlns="http://www.w3.org/2000/svg" version="1.1" xmlns:xl="http://www.w3.org/1999/xlink" xmlns:dc="http://purl.org/dc/elements/1.1/" viewBox="0 0 16 16" width="16" height="16">
  <defs/>
  <g id="favicon-pinned-svg" stroke-opacity="1" stroke-dasharray="none" fill-opacity="1" fill="none" stroke="none">
    <title>favicon-pinned-svg</title>
    <rect fill="white" x="0" y="0" width="16" height="16"/>
    <g id="favicon-pinned-svg_Layer_1">
      <title>Layer 1</title>
      <g id="Group_37">
        <title>Canvas_1</title>
        <g id="Group_38">
          <title>Canvas_1_Layer_1</title>
          <g id="Group_39">
            <title>Graphic_8</title>
            <g id="Graphic_40">
              <path d="M 8.000007 16 C 9.09282 16 10.121566 15.79085 11.08628 15.372554 C 12.05098 14.954247 12.901962 14.376475 13.639227 13.639214 C 14.376478 12.901956 14.95425 12.05098 15.372554 11.086274 C 15.790857 10.121564 16 9.092815 16 7.999998 C 16 6.907182 15.790857 5.878436 15.372554 4.913726 C 14.95425 3.9490126 14.376478 3.098041 13.639227 2.360783 C 12.901962 1.6235249 12.049692 1.0457495 11.082347 .6274497 C 10.115036 .20914293 9.084968 0 7.992161 0 C 6.899348 0 5.870602 .20914293 4.905885 .6274497 C 3.941168 1.0457495 3.091508 1.6235249 2.356864 2.360783 C 1.62222 3.098041 1.0457462 3.9490126 .62746026 4.913726 C .2091395 5.878436 0 6.907182 0 7.999998 C 0 9.092815 .2091395 10.121564 .62746026 11.086274 C 1.0457462 12.05098 1.6235218 12.901956 2.360787 13.639214 C 3.098052 14.376475 3.949017 14.954247 4.913734 15.372554 C 5.8784336 15.79085 6.90718 16 8.000007 16 Z M 7.1137294 11.827451 C 6.97777 11.827451 6.854898 11.798693 6.7451 11.741177 C 6.6352955 11.68366 6.528108 11.586929 6.4235245 11.45098 L 4.454897 9.035295 C 4.3973943 8.956862 4.351636 8.874511 4.3176495 8.788232 C 4.283663 8.701961 4.26667 8.614378 4.26667 8.525489 C 4.26667 8.347711 4.326804 8.194773 4.447065 8.066666 C 4.567326 7.938559 4.7163386 7.874509 4.89412 7.874509 C 5.009153 7.874509 5.112417 7.898039 5.203927 7.945096 C 5.295437 7.992156 5.390845 8.081041 5.490197 8.211762 L 7.082357 10.266661 L 10.43137 4.886273 C 10.577772 4.645751 10.766013 4.5254897 10.996093 4.5254897 C 11.163414 4.5254897 11.315037 4.5790833 11.450986 4.686274 C 11.586932 4.793465 11.654901 4.9385613 11.654901 5.121567 C 11.654901 5.210456 11.633982 5.2993446 11.59216 5.388237 C 11.550338 5.477122 11.505889 5.5607794 11.458828 5.6392154 L 7.772552 11.45098 C 7.688894 11.57647 7.592163 11.670586 7.482355 11.733331 C 7.372561 11.796083 7.2496785 11.827451 7.1137294 11.827451 Z" fill="black"/>
            </g>
          </g>
        </g>
      </g>
    </g>
  </g>
</svg>
